<svg version="1.1" xmlns="http://www.w3.org/2000/svg" viewBox="0 0 685.59375 266.91796875" width="1371.1875" height="533.8359375">
  <!-- svg-source:excalidraw -->
  
  <defs>
    <style class="style-fonts">
      @font-face {
        font-family: "Virgil";
        src: url("https://excalidraw.com/Virgil.woff2");
      }
      @font-face {
        font-family: "Cascadia";
        src: url("https://excalidraw.com/Cascadia.woff2");
      }
      @font-face {
        font-family: "Assistant";
        src: url("https://excalidraw.com/Assistant-Regular.woff2");
      }
    </style>
    
  </defs>
  <rect x="0" y="0" width="685.59375" height="266.91796875" fill="#ffffff"></rect><g stroke-linecap="round" transform="translate(10 146.78125) rotate(0 332.796875 55.068359375)"><path d="M27.53 0 C153.34 -2.54, 279.62 -2.2, 638.06 0 M27.53 0 C195.57 -1.18, 362.91 -1.23, 638.06 0 M638.06 0 C655.94 1.4, 664.61 7.26, 665.59 27.53 M638.06 0 C656.15 0.16, 666.7 8.02, 665.59 27.53 M665.59 27.53 C663.75 50.2, 664.1 73.35, 665.59 82.6 M665.59 27.53 C666.8 42.87, 666.19 59.51, 665.59 82.6 M665.59 82.6 C664.92 102.79, 654.58 111.01, 638.06 110.14 M665.59 82.6 C666.64 99.05, 657.76 110.85, 638.06 110.14 M638.06 110.14 C455.08 110.07, 273.01 109.03, 27.53 110.14 M638.06 110.14 C422.18 107.56, 206.91 107.53, 27.53 110.14 M27.53 110.14 C7.62 110.59, -1.95 101.79, 0 82.6 M27.53 110.14 C10.74 108.62, 0.13 100.51, 0 82.6 M0 82.6 C-0.98 65.44, 0.54 44.98, 0 27.53 M0 82.6 C-0.39 66.28, 0.92 49.37, 0 27.53 M0 27.53 C1.54 10.09, 7.22 1.28, 27.53 0 M0 27.53 C0.48 7.91, 7.24 -1.31, 27.53 0" stroke="#1e1e1e" stroke-width="2" fill="none"></path></g><g transform="translate(307.640625 189.849609375) rotate(0 35.15625 12)"><text x="35.15625" y="19.3125" font-family="Cascadia, Segoe UI Emoji" font-size="20px" fill="#1e1e1e" text-anchor="middle" style="white-space: pre;" direction="ltr" dominant-baseline="alphabetic">ArceOS</text></g><g stroke-linecap="round" transform="translate(31.82421875 158.1796875) rotate(0 127.66796875 41.4296875)"><path d="M20.71 0 C84.16 0.76, 146.89 2.43, 234.62 0 M20.71 0 C82.88 -1.93, 145.97 -1.65, 234.62 0 M234.62 0 C247.99 0.25, 254.8 6.16, 255.34 20.71 M234.62 0 C250.06 1.47, 257.4 7.95, 255.34 20.71 M255.34 20.71 C257.47 30.12, 256.02 40.81, 255.34 62.14 M255.34 20.71 C254.75 30.42, 254.87 39.34, 255.34 62.14 M255.34 62.14 C257.31 76.86, 248.82 83.21, 234.62 82.86 M255.34 62.14 C255.96 74.34, 249.63 83.58, 234.62 82.86 M234.62 82.86 C181.12 83.15, 130.69 81.55, 20.71 82.86 M234.62 82.86 C177.59 83.87, 122.73 82.79, 20.71 82.86 M20.71 82.86 C5.05 81.61, 1.94 76.38, 0 62.14 M20.71 82.86 C7.95 84.96, 0.16 73.73, 0 62.14 M0 62.14 C-1.01 49.26, 2.18 37.41, 0 20.71 M0 62.14 C0.91 48.8, -0.26 33.64, 0 20.71 M0 20.71 C0.7 5.47, 8.55 -1.03, 20.71 0 M0 20.71 C-0.34 5.07, 5.39 2.16, 20.71 0" stroke="#1e1e1e" stroke-width="2" fill="none"></path></g><g transform="translate(100.8984375 187.609375) rotate(0 58.59375 12)"><text x="58.59375" y="19.3125" font-family="Cascadia, Segoe UI Emoji" font-size="20px" fill="#1e1e1e" text-anchor="middle" style="white-space: pre;" direction="ltr" dominant-baseline="alphabetic">Hypervisor</text></g><g stroke-linecap="round" transform="translate(410.9140625 13.07421875) rotate(0 130.966796875 37.212890625)"><path d="M18.61 0 C73.66 -2.67, 130.31 -2.9, 243.33 0 M18.61 0 C73.62 -0.24, 128.55 -0.36, 243.33 0 M243.33 0 C254.66 -0.16, 263.02 8.14, 261.93 18.61 M243.33 0 C255.11 0.55, 263.23 4.06, 261.93 18.61 M261.93 18.61 C262.86 30.15, 262.89 46.14, 261.93 55.82 M261.93 18.61 C261.21 27.88, 262.62 37.06, 261.93 55.82 M261.93 55.82 C262.82 66.4, 254.96 74.4, 243.33 74.43 M261.93 55.82 C263.54 69.01, 253.57 75.22, 243.33 74.43 M243.33 74.43 C182.61 75.5, 123.38 75.85, 18.61 74.43 M243.33 74.43 C160.42 73.84, 77.43 73.71, 18.61 74.43 M18.61 74.43 C4.6 75.46, 1.65 68.55, 0 55.82 M18.61 74.43 C5.33 75.84, 1.48 66.06, 0 55.82 M0 55.82 C0.14 42.61, -0.77 31.08, 0 18.61 M0 55.82 C-0.16 46.14, 1.2 36.87, 0 18.61 M0 18.61 C0.89 4.86, 5.96 1.64, 18.61 0 M0 18.61 C-0.47 6.13, 8.12 -2.14, 18.61 0" stroke="#1e1e1e" stroke-width="2" fill="none"></path></g><g transform="translate(500.865234375 38.287109375) rotate(0 41.015625 12)"><text x="41.015625" y="19.3125" font-family="Cascadia, Segoe UI Emoji" font-size="20px" fill="#1e1e1e" text-anchor="middle" style="white-space: pre;" direction="ltr" dominant-baseline="alphabetic">Process</text></g><g stroke-linecap="round" transform="translate(414.24609375 157.57421875) rotate(0 119.533203125 39.109375)"><path d="M19.55 0 C97.53 -2.07, 177.27 -2.79, 219.51 0 M19.55 0 C88.52 -0.04, 158.19 -0.44, 219.51 0 M219.51 0 C233.17 1.71, 240.03 5.36, 239.07 19.55 M219.51 0 C234.29 1.03, 237.67 4.6, 239.07 19.55 M239.07 19.55 C239.98 29.37, 240.39 39.37, 239.07 58.66 M239.07 19.55 C238.53 32.25, 240.14 43.75, 239.07 58.66 M239.07 58.66 C239.69 70.73, 232.96 76.63, 219.51 78.22 M239.07 58.66 C237.35 72.22, 232.06 79.17, 219.51 78.22 M219.51 78.22 C148.14 77.28, 81.11 77.26, 19.55 78.22 M219.51 78.22 C171.1 78.43, 123.2 78.25, 19.55 78.22 M19.55 78.22 C5.76 76.28, -1.96 73.62, 0 58.66 M19.55 78.22 C8.4 79.25, -1.62 71.88, 0 58.66 M0 58.66 C-0.87 45.26, -0.71 28.1, 0 19.55 M0 58.66 C-0.11 45.74, 1.23 32.51, 0 19.55 M0 19.55 C-0.48 5.73, 5.87 1.67, 19.55 0 M0 19.55 C0.12 7.89, 8.8 0.8, 19.55 0" stroke="#1e1e1e" stroke-width="2" fill="none"></path></g><g transform="translate(445.888671875 184.68359375) rotate(0 87.890625 12)"><text x="87.890625" y="19.3125" font-family="Cascadia, Segoe UI Emoji" font-size="20px" fill="#1e1e1e" text-anchor="middle" style="white-space: pre;" direction="ltr" dominant-baseline="alphabetic">Syscall Handler</text></g><g stroke-linecap="round" transform="translate(28.099609375 10) rotate(0 126.771484375 41.4296875)"><path d="M20.71 0 C101.82 2.3, 180.33 2.41, 232.83 0 M20.71 0 C67.18 1, 115.78 0.7, 232.83 0 M232.83 0 C247.23 0.02, 254.98 5.38, 253.54 20.71 M232.83 0 C244.58 -1.04, 255.33 5.87, 253.54 20.71 M253.54 20.71 C253.7 34.27, 254.72 46.65, 253.54 62.14 M253.54 20.71 C252.34 36.68, 253.59 53.29, 253.54 62.14 M253.54 62.14 C252.61 76.72, 244.73 84.43, 232.83 82.86 M253.54 62.14 C253.75 74.63, 245.36 83.21, 232.83 82.86 M232.83 82.86 C162.25 80.8, 90.39 82.41, 20.71 82.86 M232.83 82.86 C164.74 82.98, 98.34 83.34, 20.71 82.86 M20.71 82.86 C8.03 81.57, 0.57 75.23, 0 62.14 M20.71 82.86 C7.89 81.84, -2.08 76.72, 0 62.14 M0 62.14 C0.83 47.58, 0.59 34.8, 0 20.71 M0 62.14 C0.32 47.35, -0.15 31.94, 0 20.71 M0 20.71 C-0.97 8.56, 7.25 -1.46, 20.71 0 M0 20.71 C0.2 7.77, 8.17 1.95, 20.71 0" stroke="#1e1e1e" stroke-width="2" fill="none"></path></g><g transform="translate(90.41796875 39.4296875) rotate(0 64.453125 12)"><text x="64.453125" y="19.3125" font-family="Cascadia, Segoe UI Emoji" font-size="20px" fill="#1e1e1e" text-anchor="middle" style="white-space: pre;" direction="ltr" dominant-baseline="alphabetic">Guest Linux</text></g><g mask="url(#mask-PBzh1bYrCMODzAvu4CMap)" stroke-linecap="round"><g transform="translate(613.8055315103106 89.92578125) rotate(0 1.1268852233879443 33.02766142197308)"><path d="M-0.58 -0.33 C-0.31 10.57, 1.65 53.93, 2.11 64.98 M1.31 -1.54 C1.37 9.5, 1.08 54.49, 1.09 65.96" stroke="#1e1e1e" stroke-width="2" fill="none"></path></g><g transform="translate(613.8055315103106 89.92578125) rotate(0 1.1268852233879443 33.02766142197308)"><path d="M-7.39 42.44 C-5.12 50.26, -3.47 58.37, 1.09 65.96 M-7.39 42.44 C-5.31 49.33, -2.8 56.58, 1.09 65.96" stroke="#1e1e1e" stroke-width="2" fill="none"></path></g><g transform="translate(613.8055315103106 89.92578125) rotate(0 1.1268852233879443 33.02766142197308)"><path d="M9.71 42.49 C6.16 50.21, 1.97 58.3, 1.09 65.96 M9.71 42.49 C6.74 49.51, 4.2 56.75, 1.09 65.96" stroke="#1e1e1e" stroke-width="2" fill="none"></path></g></g><mask id="mask-PBzh1bYrCMODzAvu4CMap"><rect x="0" y="0" fill="#fff" width="716.0593019570865" height="255.98110409394616"></rect><rect x="573.9167917336986" y="110.95344267197311" fill="#000" width="82.03125" height="24" opacity="1"></rect></mask><g transform="translate(573.9167917336986 110.95344267197311) rotate(0 40.653032581508114 11.18049529801121)"><text x="41.015625" y="19.3125" font-family="Cascadia, Segoe UI Emoji" font-size="20px" fill="#1e1e1e" text-anchor="middle" style="white-space: pre;" direction="ltr" dominant-baseline="alphabetic">Syscall</text></g><g mask="url(#mask-9v8kWq2FohivIzhzwpM_3)" stroke-linecap="round"><g transform="translate(413.24609375 194.306334446952) rotate(0 -65.3017578125 -76.41909636763086)"><path d="M0.67 -0.41 C-21.25 -25.98, -108.98 -128.11, -131.05 -153.64 M-0.43 -1.68 C-22.6 -27.09, -110.74 -127.35, -132.23 -152.52" stroke="#1e1e1e" stroke-width="2" fill="none"></path></g><g transform="translate(413.24609375 194.306334446952) rotate(0 -65.3017578125 -76.41909636763086)"><path d="M-110.37 -140.39 C-118.49 -145.14, -126.6 -150.36, -132.23 -152.52 M-110.37 -140.39 C-116.21 -142.53, -119.94 -145.93, -132.23 -152.52" stroke="#1e1e1e" stroke-width="2" fill="none"></path></g><g transform="translate(413.24609375 194.306334446952) rotate(0 -65.3017578125 -76.41909636763086)"><path d="M-123.28 -129.17 C-126.98 -137.83, -130.68 -146.88, -132.23 -152.52 M-123.28 -129.17 C-126.09 -133.88, -126.77 -139.94, -132.23 -152.52" stroke="#1e1e1e" stroke-width="2" fill="none"></path></g></g><mask id="mask-9v8kWq2FohivIzhzwpM_3"><rect x="0" y="0" fill="#fff" width="643.849609375" height="447.1445271822137"></rect><rect x="306.9287109375" y="105.8872380793211" fill="#000" width="82.03125" height="24" opacity="1"></rect></mask><g transform="translate(306.9287109375 105.88723807932115) rotate(0 40.54059159858622 11.393682186305512)"><text x="41.015625" y="19.3125" font-family="Cascadia, Segoe UI Emoji" font-size="20px" fill="#1e1e1e" text-anchor="middle" style="white-space: pre;" direction="ltr" dominant-baseline="alphabetic">Forward</text></g><g stroke-linecap="round"><g transform="translate(157.13317817330744 95.9921875) rotate(0 0.8008413140582888 29.98828125)"><path d="M0.75 -1.19 C1.07 8.62, 1.27 49.7, 1.43 59.79" stroke="#1e1e1e" stroke-width="2.5" fill="none" stroke-dasharray="8 10"></path></g><g transform="translate(157.13317817330744 95.9921875) rotate(0 0.8008413140582888 29.98828125)"><path d="M-7.36 36.39 C-6.9 42.08, -2.96 48.6, 1.43 59.79" stroke="#1e1e1e" stroke-width="2.5" fill="none"></path></g><g transform="translate(157.13317817330744 95.9921875) rotate(0 0.8008413140582888 29.98828125)"><path d="M9.74 36.22 C5.79 42.06, 5.32 48.63, 1.43 59.79" stroke="#1e1e1e" stroke-width="2.5" fill="none"></path></g></g><mask></mask></svg>