<svg version="1.1" xmlns="http://www.w3.org/2000/svg" viewBox="0 0 898.49609375 532.1756262779236" width="1796.9921875" height="1064.3512525558472">
  <!-- svg-source:excalidraw -->
  
  <defs>
    <style class="style-fonts">
      @font-face {
        font-family: "Virgil";
        src: url("https://excalidraw.com/Virgil.woff2");
      }
      @font-face {
        font-family: "Cascadia";
        src: url("https://excalidraw.com/Cascadia.woff2");
      }
      @font-face {
        font-family: "Assistant";
        src: url("https://excalidraw.com/Assistant-Regular.woff2");
      }
    </style>
    
  </defs>
  <rect x="0" y="0" width="898.49609375" height="532.1756262779236" fill="#ffffff"></rect><g stroke-linecap="round"><g transform="translate(313.375 9.245780107378948) rotate(0 0.787109375 256.470703125)"><path d="M0.17 0.75 C0.13 86.16, 0.09 427.68, 0.52 512.93" stroke="#1e1e1e" stroke-width="2.5" fill="none" stroke-dasharray="8 10"></path></g></g><mask></mask><g stroke-linecap="round"><g transform="translate(315.79296875 260.60124885737895) rotate(0 230.42578125 1.822265625)"><path d="M-0.55 1 C76.16 1.29, 383.61 2.22, 460.69 2.8" stroke="#1e1e1e" stroke-width="2.5" fill="none" stroke-dasharray="8 10"></path></g></g><mask></mask><g transform="translate(759.58984375 440.74187385737895) rotate(0 64.453125 12)"><text x="0" y="0" font-family="Cascadia, Segoe UI Emoji" font-size="20px" fill="#1e1e1e" text-anchor="start" style="white-space: pre;" direction="ltr" dominant-baseline="text-before-edge">Guest Ring0</text></g><g transform="translate(758.3515625 80.87859260737895) rotate(0 64.453125 12)"><text x="0" y="0" font-family="Cascadia, Segoe UI Emoji" font-size="20px" fill="#1e1e1e" text-anchor="start" style="white-space: pre;" direction="ltr" dominant-baseline="text-before-edge">Guest Ring3</text></g><g stroke-linecap="round" transform="translate(359.615234375 373.99578010737895) rotate(0 82.1640625 42.65234375)"><path d="M21.33 0 C70.18 -0.14, 116.65 -0.08, 143 0 M21.33 0 C44.97 -1.13, 70.45 0.72, 143 0 M143 0 C156.03 1.85, 162.51 8.92, 164.33 21.33 M143 0 C155.18 0.66, 165.63 8.67, 164.33 21.33 M164.33 21.33 C165.76 38.03, 162.98 56.57, 164.33 63.98 M164.33 21.33 C164.58 36.29, 163.73 50.34, 164.33 63.98 M164.33 63.98 C164.9 78.69, 157.65 86.98, 143 85.3 M164.33 63.98 C165.95 78.21, 157.2 83.81, 143 85.3 M143 85.3 C100.77 86.39, 57.82 83.34, 21.33 85.3 M143 85.3 C115.45 86, 89.71 86.98, 21.33 85.3 M21.33 85.3 C8.88 85.31, 1.29 80.04, 0 63.98 M21.33 85.3 C6.89 83.59, -1.65 76.68, 0 63.98 M0 63.98 C1 54.66, 0.87 46.28, 0 21.33 M0 63.98 C-1.09 53.64, -0.77 41.29, 0 21.33 M0 21.33 C0.04 7.74, 6.63 1.66, 21.33 0 M0 21.33 C0.94 5.98, 7.59 0.42, 21.33 0" stroke="#1e1e1e" stroke-width="2" fill="none"></path></g><g transform="translate(377.326171875 404.64812385737895) rotate(0 64.453125 12)"><text x="64.453125" y="0" font-family="Cascadia, Segoe UI Emoji" font-size="20px" fill="#1e1e1e" text-anchor="middle" style="white-space: pre;" direction="ltr" dominant-baseline="text-before-edge">VDEV Driver</text></g><g stroke-linecap="round" transform="translate(575.19140625 373.47624885737895) rotate(0 82.1640625 42.65234375)"><path d="M21.33 0 C62.59 2.04, 108.23 0.81, 143 0 M21.33 0 C59.93 0.87, 97.85 0.48, 143 0 M143 0 C155.85 -0.51, 162.7 6.05, 164.33 21.33 M143 0 C156.02 -1.02, 162.37 6.33, 164.33 21.33 M164.33 21.33 C162.37 30.59, 163.95 38.65, 164.33 63.98 M164.33 21.33 C163.32 35.21, 163.87 49.24, 164.33 63.98 M164.33 63.98 C162.92 79.55, 157.04 86.76, 143 85.3 M164.33 63.98 C164.1 76.4, 155.42 84.59, 143 85.3 M143 85.3 C106.08 85.58, 68.96 85.27, 21.33 85.3 M143 85.3 C104.31 84.21, 63.32 84.47, 21.33 85.3 M21.33 85.3 C7.36 84.96, -0.41 77.01, 0 63.98 M21.33 85.3 C8.16 86.38, -0.45 77.47, 0 63.98 M0 63.98 C-1.46 52.12, 1.38 38.82, 0 21.33 M0 63.98 C-0.38 47.19, -0.46 31.54, 0 21.33 M0 21.33 C-1.07 6.2, 5.21 -1.65, 21.33 0 M0 21.33 C0.37 7.21, 9.36 -1.84, 21.33 0" stroke="#1e1e1e" stroke-width="2" fill="none"></path></g><g transform="translate(616.33984375 380.12859260737895) rotate(0 41.015625 36)"><text x="41.015625" y="0" font-family="Cascadia, Segoe UI Emoji" font-size="20px" fill="#1e1e1e" text-anchor="middle" style="white-space: pre;" direction="ltr" dominant-baseline="text-before-edge">Linux</text><text x="41.015625" y="24" font-family="Cascadia, Segoe UI Emoji" font-size="20px" fill="#1e1e1e" text-anchor="middle" style="white-space: pre;" direction="ltr" dominant-baseline="text-before-edge">Syscall</text><text x="41.015625" y="48" font-family="Cascadia, Segoe UI Emoji" font-size="20px" fill="#1e1e1e" text-anchor="middle" style="white-space: pre;" direction="ltr" dominant-baseline="text-before-edge">Handler</text></g><g transform="translate(20.51953125 472.27703010737895) rotate(0 64.453125 12)"><text x="0" y="0" font-family="Cascadia, Segoe UI Emoji" font-size="20px" fill="#1e1e1e" text-anchor="start" style="white-space: pre;" direction="ltr" dominant-baseline="text-before-edge">Host ArceOS</text></g><g stroke-linecap="round" transform="translate(263.71484375 117.59734260737895) rotate(0 49.30078125 82.474609375)"><path d="M24.65 0 C40.99 -0.57, 55.32 -1.8, 73.95 0 C90.16 2.66, 101.59 6.62, 98.6 24.65 C101.62 50.81, 103.19 74.89, 98.6 140.3 C99.41 157.85, 93.59 161.49, 73.95 164.95 C57.17 164.43, 44.98 162.22, 24.65 164.95 C7.09 166.02, 2.31 158.69, 0 140.3 C-3.46 104.44, -2.41 70.39, 0 24.65 C-2.65 11.51, 4.85 -0.92, 24.65 0" stroke="none" stroke-width="0" fill="#ffffff"></path><path d="M24.65 0 C37.27 -1.83, 47.7 1.63, 73.95 0 M24.65 0 C41.38 -1.35, 55.42 -1.19, 73.95 0 M73.95 0 C91.09 -1.14, 97.4 9.53, 98.6 24.65 M73.95 0 C88.79 -1.71, 99.02 7.85, 98.6 24.65 M98.6 24.65 C96.63 63.28, 100.03 104.69, 98.6 140.3 M98.6 24.65 C99.63 61.24, 98.92 97.25, 98.6 140.3 M98.6 140.3 C99.39 156.31, 91.43 165.53, 73.95 164.95 M98.6 140.3 C100.33 157.5, 91.07 166.15, 73.95 164.95 M73.95 164.95 C57.69 166.93, 40.68 164.66, 24.65 164.95 M73.95 164.95 C62.33 164.72, 49.45 164.32, 24.65 164.95 M24.65 164.95 C9.09 166.56, 0.48 155.31, 0 140.3 M24.65 164.95 C8.4 163, -1 156.14, 0 140.3 M0 140.3 C1.34 103.2, 0.02 67.91, 0 24.65 M0 140.3 C1.2 109.99, 0.35 79.21, 0 24.65 M0 24.65 C0.59 7.41, 10.07 0.67, 24.65 0 M0 24.65 C-0.01 8.68, 9.94 0.08, 24.65 0" stroke="#1e1e1e" stroke-width="2" fill="none"></path></g><g transform="translate(277.859375 176.07195198237895) rotate(0 35.15625 24)"><text x="35.15625" y="0" font-family="Cascadia, Segoe UI Emoji" font-size="20px" fill="#1e1e1e" text-anchor="middle" style="white-space: pre;" direction="ltr" dominant-baseline="text-before-edge">Shared</text><text x="35.15625" y="24" font-family="Cascadia, Segoe UI Emoji" font-size="20px" fill="#1e1e1e" text-anchor="middle" style="white-space: pre;" direction="ltr" dominant-baseline="text-before-edge">Memory</text></g><g stroke-linecap="round" transform="translate(10 364.61687385737895) rotate(0 82.1640625 42.65234375)"><path d="M21.33 0 C62.32 -1.48, 106.2 -2.2, 143 0 M21.33 0 C63.54 -0.96, 105.99 -0.66, 143 0 M143 0 C157.42 -0.08, 163.9 6.5, 164.33 21.33 M143 0 C155.3 0.6, 164.4 9.07, 164.33 21.33 M164.33 21.33 C162.54 32.16, 162.6 43.32, 164.33 63.98 M164.33 21.33 C163.58 35.14, 164.47 50.8, 164.33 63.98 M164.33 63.98 C165.08 78.57, 155.25 84.88, 143 85.3 M164.33 63.98 C164.89 79.3, 158.6 84.36, 143 85.3 M143 85.3 C104.14 87.2, 66.66 85.1, 21.33 85.3 M143 85.3 C118.2 84.68, 92.38 85.73, 21.33 85.3 M21.33 85.3 C6.12 86.74, -1.9 76.42, 0 63.98 M21.33 85.3 C7.1 86.63, 0.87 77.75, 0 63.98 M0 63.98 C0.12 52.91, 0.15 40.63, 0 21.33 M0 63.98 C0.31 50.71, 0.9 35.17, 0 21.33 M0 21.33 C0.04 7.4, 8.57 -0.33, 21.33 0 M0 21.33 C-0.41 7.17, 6.11 0.13, 21.33 0" stroke="#1e1e1e" stroke-width="2" fill="none"></path></g><g transform="translate(51.1484375 371.26921760737895) rotate(0 41.015625 36)"><text x="41.015625" y="0" font-family="Cascadia, Segoe UI Emoji" font-size="20px" fill="#1e1e1e" text-anchor="middle" style="white-space: pre;" direction="ltr" dominant-baseline="text-before-edge">ArceOS</text><text x="41.015625" y="24" font-family="Cascadia, Segoe UI Emoji" font-size="20px" fill="#1e1e1e" text-anchor="middle" style="white-space: pre;" direction="ltr" dominant-baseline="text-before-edge">Syscall</text><text x="41.015625" y="48" font-family="Cascadia, Segoe UI Emoji" font-size="20px" fill="#1e1e1e" text-anchor="middle" style="white-space: pre;" direction="ltr" dominant-baseline="text-before-edge">Handler</text></g><g stroke-linecap="round" transform="translate(531.51953125 93.39421760737895) rotate(0 82.1640625 42.65234375)"><path d="M21.33 0 C50.69 0.71, 82.9 -1.6, 143 0 M21.33 0 C61.82 1.07, 100.32 0.85, 143 0 M143 0 C155.56 0.49, 165.91 5.27, 164.33 21.33 M143 0 C156.06 0.62, 164.87 4.98, 164.33 21.33 M164.33 21.33 C163.1 32.31, 164.64 40.24, 164.33 63.98 M164.33 21.33 C163.62 37.5, 163.86 53.47, 164.33 63.98 M164.33 63.98 C162.4 79.09, 156.43 86.15, 143 85.3 M164.33 63.98 C166.11 76.22, 156.34 87.28, 143 85.3 M143 85.3 C102.58 84.13, 62.31 84.1, 21.33 85.3 M143 85.3 C99.6 84.2, 56.65 83.69, 21.33 85.3 M21.33 85.3 C6.91 87.08, 0.2 78.44, 0 63.98 M21.33 85.3 C7.4 83.35, 0.98 78.15, 0 63.98 M0 63.98 C0.72 50.72, 2.19 33.78, 0 21.33 M0 63.98 C-0.07 51.71, -0.08 40.12, 0 21.33 M0 21.33 C-0.79 5.41, 6.49 0.64, 21.33 0 M0 21.33 C0.64 5.39, 8.17 1.02, 21.33 0" stroke="#1e1e1e" stroke-width="2" fill="none"></path></g><g transform="translate(572.66796875 112.04656135737895) rotate(0 41.015625 24)"><text x="41.015625" y="0" font-family="Cascadia, Segoe UI Emoji" font-size="20px" fill="#1e1e1e" text-anchor="middle" style="white-space: pre;" direction="ltr" dominant-baseline="text-before-edge">Shadow</text><text x="41.015625" y="24" font-family="Cascadia, Segoe UI Emoji" font-size="20px" fill="#1e1e1e" text-anchor="middle" style="white-space: pre;" direction="ltr" dominant-baseline="text-before-edge">Process</text></g><g mask="url(#mask-32z0RN7Km5XvWrAfPv2aS)" stroke-linecap="round"><g transform="translate(94.46008425741411 360.87468635737906) rotate(0 83.74847349629295 -80.59847830626796)"><path d="M0.97 0.87 C12.8 -22.09, 43.85 -111.76, 71.45 -138.74 C99.05 -165.73, 150.39 -157.23, 166.57 -161.01 M0.01 0.29 C11.6 -22.96, 42.07 -113.94, 70.23 -140.59 C98.39 -167.23, 152.47 -156.28, 168.97 -159.6" stroke="#1e1e1e" stroke-width="2" fill="none"></path></g><g transform="translate(94.46008425741411 360.87468635737906) rotate(0 83.74847349629295 -80.59847830626796)"><path d="M2.7 -24.07 C3.37 -16.48, 2.22 -8.7, 0.97 0.87 M2.7 -24.07 C3.01 -15.48, 2.73 -7.43, 0.97 0.87" stroke="#1e1e1e" stroke-width="2" fill="none"></path></g><g transform="translate(94.46008425741411 360.87468635737906) rotate(0 83.74847349629295 -80.59847830626796)"><path d="M18.33 -17.12 C13.76 -11.76, 7.31 -6.34, 0.97 0.87 M18.33 -17.12 C13.65 -10.76, 8.44 -4.9, 0.97 0.87" stroke="#1e1e1e" stroke-width="2" fill="none"></path></g><g transform="translate(94.46008425741411 360.87468635737906) rotate(0 83.74847349629295 -80.59847830626796)"><path d="M145.68 -150.51 C155.1 -154.65, 162.42 -158.41, 168.97 -159.6 M145.68 -150.51 C153.6 -152.61, 161.22 -155.29, 168.97 -159.6" stroke="#1e1e1e" stroke-width="2" fill="none"></path></g><g transform="translate(94.46008425741411 360.87468635737906) rotate(0 83.74847349629295 -80.59847830626796)"><path d="M145.29 -167.61 C154.71 -165.96, 162.16 -163.92, 168.97 -159.6 M145.29 -167.61 C153.48 -164.31, 161.22 -161.6, 168.97 -159.6" stroke="#1e1e1e" stroke-width="2" fill="none"></path></g></g><mask id="mask-32z0RN7Km5XvWrAfPv2aS"><rect x="0" y="0" fill="#fff" width="361.95703125" height="622.071642969915"></rect><rect x="125.41796875" y="197.5973426073789" fill="#000" width="82.03125" height="48" opacity="1"></rect></mask><g transform="translate(125.41796875 197.59734260737895) rotate(0 53.53574847907271 83.20810736622991)"><text x="41.015625" y="0" font-family="Cascadia, Segoe UI Emoji" font-size="20px" fill="#1e1e1e" text-anchor="middle" style="white-space: pre;" direction="ltr" dominant-baseline="text-before-edge">Syscall</text><text x="41.015625" y="24" font-family="Cascadia, Segoe UI Emoji" font-size="20px" fill="#1e1e1e" text-anchor="middle" style="white-space: pre;" direction="ltr" dominant-baseline="text-before-edge">Data</text></g><g mask="url(#mask-OamQOpQmZsMjamARiGzBr)" stroke-linecap="round"><g transform="translate(528.8984375 126.45589824385922) rotate(0 -81.69921875 32.96256511163415)"><path d="M0.53 0.52 C-13.78 6.32, -59.15 22.67, -86.65 33.73 C-114.16 44.8, -151.71 61.43, -164.49 66.9 M-0.65 -0.26 C-14.51 5.31, -57.4 21.17, -84.32 32.06 C-111.23 42.94, -149.04 59.68, -162.16 65.07" stroke="#1e1e1e" stroke-width="2" fill="none"></path></g><g transform="translate(528.8984375 126.45589824385922) rotate(0 -81.69921875 32.96256511163415)"><path d="M-18.43 16.82 C-12.95 11.72, -7.94 7.25, 0.53 0.52 M-18.43 16.82 C-11.87 10.32, -4.78 4.29, 0.53 0.52" stroke="#1e1e1e" stroke-width="2" fill="none"></path></g><g transform="translate(528.8984375 126.45589824385922) rotate(0 -81.69921875 32.96256511163415)"><path d="M-24.47 0.82 C-17.72 -0.54, -11.28 -1.25, 0.53 0.52 M-24.47 0.82 C-15.6 0.39, -6.21 0.45, 0.53 0.52" stroke="#1e1e1e" stroke-width="2" fill="none"></path></g><g transform="translate(528.8984375 126.45589824385922) rotate(0 -81.69921875 32.96256511163415)"><path d="M-143.89 48.01 C-147.48 50.92, -151.23 54.3, -162.16 65.07 M-143.89 48.01 C-151.51 54.42, -158.6 61.1, -162.16 65.07" stroke="#1e1e1e" stroke-width="2" fill="none"></path></g><g transform="translate(528.8984375 126.45589824385922) rotate(0 -81.69921875 32.96256511163415)"><path d="M-137.2 63.74 C-142.22 62.98, -147.55 62.66, -162.16 65.07 M-137.2 63.74 C-147.37 64.2, -157.02 64.88, -162.16 65.07" stroke="#1e1e1e" stroke-width="2" fill="none"></path></g></g><mask id="mask-OamQOpQmZsMjamARiGzBr"><rect x="0" y="0" fill="#fff" width="792.296875" height="292.3810284671275"></rect><rect x="401.9375" y="135.33953010737895" fill="#000" width="82.03125" height="48" opacity="1"></rect></mask><g transform="translate(401.9375 135.33953010737895) rotate(0 44.9820631712675 24.437772477306098)"><text x="41.015625" y="0" font-family="Cascadia, Segoe UI Emoji" font-size="20px" fill="#1e1e1e" text-anchor="middle" style="white-space: pre;" direction="ltr" dominant-baseline="text-before-edge">Syscall</text><text x="41.015625" y="24" font-family="Cascadia, Segoe UI Emoji" font-size="20px" fill="#1e1e1e" text-anchor="middle" style="white-space: pre;" direction="ltr" dominant-baseline="text-before-edge">Data</text></g><g mask="url(#mask-c5WMCXQxQMm8kt1_mpcfZ)" stroke-linecap="round"><g transform="translate(654.5 180.71062385737895) rotate(0 14.121659558305055 95.1640625)"><path d="M0.18 -0.25 C1.34 16.1, 1.9 67.01, 6.68 98.72 C11.46 130.42, 25.34 174.53, 28.86 189.99 M-1.19 -1.43 C0.36 15.05, 3.9 68.01, 8.83 100.1 C13.77 132.2, 25.26 176.22, 28.42 191.13" stroke="#1e1e1e" stroke-width="2" fill="none"></path></g><g transform="translate(654.5 180.71062385737895) rotate(0 14.121659558305055 95.1640625)"><path d="M9.85 22.8 C6.66 14.72, 3.95 11.2, 0.18 -0.25 M9.85 22.8 C7.69 16.18, 5.28 11.34, 0.18 -0.25" stroke="#1e1e1e" stroke-width="2" fill="none"></path></g><g transform="translate(654.5 180.71062385737895) rotate(0 14.121659558305055 95.1640625)"><path d="M-7.23 23.62 C-5.74 15.29, -3.77 11.54, 0.18 -0.25 M-7.23 23.62 C-4.75 16.62, -2.52 11.55, 0.18 -0.25" stroke="#1e1e1e" stroke-width="2" fill="none"></path></g><g transform="translate(654.5 180.71062385737895) rotate(0 14.121659558305055 95.1640625)"><path d="M14.77 170.18 C18.19 174.13, 21.87 182.68, 28.42 191.13 M14.77 170.18 C18.78 175.29, 22.71 182.4, 28.42 191.13" stroke="#1e1e1e" stroke-width="2" fill="none"></path></g><g transform="translate(654.5 180.71062385737895) rotate(0 14.121659558305055 95.1640625)"><path d="M31.42 166.31 C30.3 171.35, 29.41 180.96, 28.42 191.13 M31.42 166.31 C30.9 172.63, 30.3 180.79, 28.42 191.13" stroke="#1e1e1e" stroke-width="2" fill="none"></path></g></g><mask id="mask-c5WMCXQxQMm8kt1_mpcfZ"><rect x="0" y="0" fill="#fff" width="782.7433191166101" height="471.03874885737895"></rect><rect x="621.23046875" y="267.718436357379" fill="#000" width="82.03125" height="24" opacity="1"></rect></mask><g transform="translate(621.23046875 267.718436357379) rotate(0 47.10582783628854 7.839776112874944)"><text x="41.015625" y="0" font-family="Cascadia, Segoe UI Emoji" font-size="20px" fill="#1e1e1e" text-anchor="middle" style="white-space: pre;" direction="ltr" dominant-baseline="text-before-edge">Syscall</text></g><g mask="url(#mask-EzU-5bG5gz8Zs3-xaCbU1)" stroke-linecap="round"><g transform="translate(175.328125 397.3764288668107) rotate(0 91.533203125 0.9204780222224258)"><path d="M-0.24 0.4 C30.42 0.75, 152.84 2.43, 183.31 2.57 M-1.82 -0.44 C28.76 -0.47, 151.92 0.38, 182.49 0.83" stroke="#1e1e1e" stroke-width="2" fill="none"></path></g><g transform="translate(175.328125 397.3764288668107) rotate(0 91.533203125 0.9204780222224258)"><path d="M158.91 9.15 C165.36 7.54, 171.74 4.28, 182.49 0.83 M158.91 9.15 C164.34 6.39, 171.25 6.12, 182.49 0.83" stroke="#1e1e1e" stroke-width="2" fill="none"></path></g><g transform="translate(175.328125 397.3764288668107) rotate(0 91.533203125 0.9204780222224258)"><path d="M159.08 -7.95 C165.55 -5.34, 171.89 -4.38, 182.49 0.83 M159.08 -7.95 C164.41 -6.41, 171.27 -2.38, 182.49 0.83" stroke="#1e1e1e" stroke-width="2" fill="none"></path></g></g><mask id="mask-EzU-5bG5gz8Zs3-xaCbU1"><rect x="0" y="0" fill="#fff" width="458.39453125" height="499.2173849112556"></rect><rect x="249.283203125" y="386.29690688903315" fill="#000" width="35.15625" height="24" opacity="1"></rect></mask><g transform="translate(249.283203125 386.29690688903315) rotate(0 16.788846016754405 12.143867826390078)"><text x="17.578125" y="0" font-family="Cascadia, Segoe UI Emoji" font-size="20px" fill="#1e1e1e" text-anchor="middle" style="white-space: pre;" direction="ltr" dominant-baseline="text-before-edge">IPI</text></g><g mask="url(#mask-CyUx2UG6zGNhiIB733hTP)" stroke-linecap="round"><g transform="translate(398.203125 373.35124885737895) rotate(0 74.552734375 -97.224609375)"><path d="M-0.08 -0.47 C8.71 -15.93, 27.57 -59.77, 52.26 -92 C76.95 -124.22, 132.14 -176.9, 148.09 -193.82 M-1.58 -1.76 C7.12 -17.11, 26.14 -58.26, 51.48 -90.61 C76.81 -122.95, 134.43 -178.33, 150.45 -195.83" stroke="#1e1e1e" stroke-width="2" fill="none"></path></g><g transform="translate(398.203125 373.35124885737895) rotate(0 74.552734375 -97.224609375)"><path d="M140.2 -173.03 C141.95 -178.45, 144.95 -186.64, 150.45 -195.83 M140.2 -173.03 C143.57 -181.55, 148.27 -190.09, 150.45 -195.83" stroke="#1e1e1e" stroke-width="2" fill="none"></path></g><g transform="translate(398.203125 373.35124885737895) rotate(0 74.552734375 -97.224609375)"><path d="M127.94 -184.94 C132.97 -187.25, 139.17 -192.32, 150.45 -195.83 M127.94 -184.94 C135.51 -189.36, 144.54 -193.7, 150.45 -195.83" stroke="#1e1e1e" stroke-width="2" fill="none"></path></g></g><mask id="mask-CyUx2UG6zGNhiIB733hTP"><rect x="0" y="0" fill="#fff" width="647.30859375" height="667.800467607379"></rect><rect x="414.98828125" y="269.632498857379" fill="#000" width="70.3125" height="24" opacity="1"></rect></mask><g transform="translate(414.98828125 269.632498857379) rotate(0 57.64918754012325 5.568431513081322)"><text x="35.15625" y="0" font-family="Cascadia, Segoe UI Emoji" font-size="20px" fill="#1e1e1e" text-anchor="middle" style="white-space: pre;" direction="ltr" dominant-baseline="text-before-edge">Signal</text></g><g mask="url(#mask-JtCU8eDrllvFVXejwHQyT)" stroke-linecap="round"><g transform="translate(587.609375 179.30437385737895) rotate(0 -55.36328125 96.796875)"><path d="M-1 -0.76 C-7.01 16.26, -19.1 70.2, -37.27 102.5 C-55.44 134.8, -97.92 177.68, -110.02 193.05 M0.68 1.45 C-5.36 18.11, -19.49 68.73, -38 100.83 C-56.52 132.94, -98.55 178.77, -110.41 194.08" stroke="#1e1e1e" stroke-width="2" fill="none"></path></g><g transform="translate(587.609375 179.30437385737895) rotate(0 -55.36328125 96.796875)"><path d="M-101.93 170.57 C-104.85 175.94, -103.86 181.22, -110.41 194.08 M-101.93 170.57 C-102.97 175.71, -106.28 183.24, -110.41 194.08" stroke="#1e1e1e" stroke-width="2" fill="none"></path></g><g transform="translate(587.609375 179.30437385737895) rotate(0 -55.36328125 96.796875)"><path d="M-88.8 181.52 C-94.42 184.56, -96.09 187.62, -110.41 194.08 M-88.8 181.52 C-93.26 183.99, -99.91 188.73, -110.41 194.08" stroke="#1e1e1e" stroke-width="2" fill="none"></path></g></g><mask id="mask-JtCU8eDrllvFVXejwHQyT"><rect x="0" y="0" fill="#fff" width="798.3359375" height="472.89812385737895"></rect><rect x="520.640625" y="268.944998857379" fill="#000" width="58.59375" height="24" opacity="1"></rect></mask><g transform="translate(520.640625 268.944998857379) rotate(0 12.10291854814625 7.018933099652628)"><text x="29.296875" y="0" font-family="Cascadia, Segoe UI Emoji" font-size="20px" fill="#1e1e1e" text-anchor="middle" style="white-space: pre;" direction="ltr" dominant-baseline="text-before-edge">ioctl</text></g><g mask="url(#mask-O5QGbiT4H9uwtdJ6hJqpv)" stroke-linecap="round"><g transform="translate(356.55078125 427.93112751984444) rotate(0 -90.611328125 0.4806846723575404)"><path d="M-0.65 0.34 C-30.84 0.16, -152.18 -0.13, -182.07 -0.12 M1.21 -0.53 C-28.52 -0.68, -149.58 0.52, -179.81 0.86" stroke="#1e1e1e" stroke-width="2" fill="none"></path></g><g transform="translate(356.55078125 427.93112751984444) rotate(0 -90.611328125 0.4806846723575404)"><path d="M-156.4 -7.93 C-160.96 -7.53, -168.5 -2.17, -179.81 0.86 M-156.4 -7.93 C-162.84 -6.5, -169.14 -4.02, -179.81 0.86" stroke="#1e1e1e" stroke-width="2" fill="none"></path></g><g transform="translate(356.55078125 427.93112751984444) rotate(0 -90.611328125 0.4806846723575404)"><path d="M-156.23 9.17 C-160.96 5.78, -168.54 7.35, -179.81 0.86 M-156.23 9.17 C-162.62 6.21, -168.96 4.31, -179.81 0.86" stroke="#1e1e1e" stroke-width="2" fill="none"></path></g></g><mask id="mask-O5QGbiT4H9uwtdJ6hJqpv"><rect x="0" y="0" fill="#fff" width="637.7734375" height="528.8924968645595"></rect><rect x="230.783203125" y="416.411812192202" fill="#000" width="70.3125" height="24" opacity="1"></rect></mask><g transform="translate(230.783203125 416.411812192202) rotate(0 35.33407425880898 11.674500624960075)"><text x="35.15625" y="0" font-family="Cascadia, Segoe UI Emoji" font-size="20px" fill="#1e1e1e" text-anchor="middle" style="white-space: pre;" direction="ltr" dominant-baseline="text-before-edge">VMCALL</text></g><g mask="url(#mask-PDkevpkYcxY_8Qibv0xz9)" stroke-linecap="round"><g transform="translate(367.2734375 372.83953010737895) rotate(0 -13.734375 -44.7578125)"><path d="M0.95 -0.34 C-1.46 -6.99, -9.34 -25.51, -13.93 -40.44 C-18.53 -55.37, -24.22 -81.78, -26.62 -89.9" stroke="#1e1e1e" stroke-width="2.5" fill="none" stroke-dasharray="8 10"></path></g><g transform="translate(367.2734375 372.83953010737895) rotate(0 -13.734375 -44.7578125)"><path d="M-12.51 -69.26 C-17.88 -77.58, -23.41 -82.06, -26.62 -89.9" stroke="#1e1e1e" stroke-width="2.5" fill="none"></path></g><g transform="translate(367.2734375 372.83953010737895) rotate(0 -13.734375 -44.7578125)"><path d="M-29.08 -65.02 C-28.68 -74.94, -28.46 -80.9, -26.62 -89.9" stroke="#1e1e1e" stroke-width="2.5" fill="none"></path></g></g><mask id="mask-PDkevpkYcxY_8Qibv0xz9"><rect x="0" y="0" fill="#fff" width="494.7421875" height="562.355155107379"></rect><rect x="330.66015625" y="321.120780107379" fill="#000" width="46.875" height="24" opacity="1"></rect></mask><g transform="translate(330.66015625 321.120780107379) rotate(0 23.780732128024113 6.597895601391798)"><text x="23.4375" y="0" font-family="Cascadia, Segoe UI Emoji" font-size="20px" fill="#1e1e1e" text-anchor="middle" style="white-space: pre;" direction="ltr" dominant-baseline="text-before-edge">mmap</text></g></svg>